<?xml version="1.0" encoding="UTF-8"?>
<svg id="Layer_1" data-name="Layer 1" xmlns="http://www.w3.org/2000/svg" viewBox="0 0 1812.65 499.74">
  <defs>
    <style>
      .cls-1 {
        fill: none;
      }

      .cls-1, .cls-2 {
        stroke-width: 0px;
      }

      .cls-2 {
        fill: #01594f;
      }
    </style>
  </defs>
  <rect class="cls-1" x="0" width="1932.63" height="499.74"/>
  <g>
    <g>
      <path class="cls-2" d="M783.32,128.02l31.31,68.93c2.03,4.48,6.52,7.35,11.45,7.35h155.73c.63,0,1.24-.18,1.79-.5.02,0,.06-.02.08-.04l2.11-1.31.31-.16.83-.5c1.01-.67,1.62-1.78,1.62-2.99V11.97c0-2.87-2.34-5.19-5.22-5.19h-80.21c-2.88,0-5.22,2.32-5.22,5.19v102.32c0,2.87-2.34,5.19-5.22,5.19h-103.82c-4.43,0-7.37,4.54-5.56,8.56l.02-.02Z"/>
      <path class="cls-2" d="M773.98,485.75c-1.46,3.41,1.06,7.21,4.79,7.21h98.77c37.74,0,65.67-9.63,83.83-28.89,12.36-13.14,20.52-31.05,24.42-53.62,1.83-10.52,2.76-22.05,2.76-34.62v-177.02l-2.46,1.51-.31.16-2.96,1.86-51.6,31.84c-20.71,12.78-33.3,35.29-33.3,59.52v99.39c0,2-.12,3.75-.38,5.27-.24,1.49-.73,2.48-1.5,3.01-.77.51-1.76.89-3,1.11-1.26.24-2.92.38-4.93.38h-63.14c-9.3,0-17.7,5.51-21.36,14.01l-29.62,68.87v.02Z"/>
      <path class="cls-2" d="M1246.32,128.02l-31.31,68.93c-2.03,4.48-6.52,7.35-11.45,7.35h-155.73c-.63,0-1.24-.18-1.79-.5-.02,0-.06-.02-.08-.04l-2.11-1.31-.31-.16-.83-.5c-1.01-.67-1.62-1.78-1.62-2.99V11.97c0-2.87,2.34-5.19,5.22-5.19h80.21c2.88,0,5.22,2.32,5.22,5.19v102.32c0,2.87,2.34,5.19,5.22,5.19h103.82c4.42,0,7.37,4.54,5.56,8.56l-.02-.02Z"/>
      <path class="cls-2" d="M1255.66,485.75c1.46,3.41-1.06,7.21-4.79,7.21h-98.77c-37.74,0-65.67-9.63-83.83-28.89-12.36-13.14-20.52-31.05-24.42-53.62-1.83-10.52-2.76-22.05-2.76-34.62v-177.02l2.46,1.51.31.16,2.96,1.86,51.61,31.84c20.71,12.78,33.3,35.29,33.3,59.52v99.39c0,2,.12,3.75.38,5.27.24,1.49.73,2.48,1.5,3.01.77.51,1.77.89,3.01,1.11,1.26.24,2.92.38,4.93.38h63.14c9.3,0,17.7,5.51,21.36,14.01l29.62,68.87v.02Z"/>
    </g>
    <g>
      <g>
        <polygon class="cls-2" points="258.11 234.13 258.11 234.18 258.08 234.13 258.11 234.13"/>
        <path class="cls-2" d="M258.08,234.13l.03.05v-.05h-.03Z"/>
      </g>
      <g>
        <path class="cls-2" d="M258.08,234.13l.03.05v-.05h-.03ZM258.08,234.13l.03.05v-.05h-.03ZM258.08,234.13l.03.05v-.05h-.03Z"/>
        <path class="cls-2" d="M331.1,303.32c-12.5-15.65-28.27-27.43-46.91-35.06-18.14-7.38-38.07-12.39-59.27-14.9-20.53-2.43-39.77-5.15-57.2-8.11-16.94-2.88-31.06-7.11-41.97-12.56-9.08-4.53-13.29-11.59-13.29-22.23,0-13.2,4.71-22.76,14.41-29.18,10.59-7.03,27.78-10.59,51.13-10.59,13.36,0,24.86,1.59,34.22,4.71,9.03,2.97,16.47,7.22,22.1,12.63,5.52,5.33,9.6,11.88,12.12,19.48,2.58,7.82,3.93,16.54,4.01,25.76-.29,2.5.67,4.98,2.59,6.68,1.62,1.43,3.78,2.12,5.8,1.88h74.3c4.23,0,7.68-3.45,7.68-7.68,0-19.75-3.8-38.64-11.27-56.12-7.51-17.48-18.34-32.79-32.23-45.54-13.8-12.67-30.98-22.79-51.05-30.09-19.97-7.25-42.54-10.92-67.08-10.92-22.1,0-42.89,2.15-61.75,6.39-19.13,4.31-35.83,10.92-49.65,19.64-14.17,8.94-25.43,20.34-33.47,33.89-8.21,13.76-12.37,30.18-12.37,48.82,0,27.3,6.5,48.92,19.34,64.24,12.45,14.82,28.16,26.27,46.72,34.03,18,7.57,37.89,12.98,59.12,16.06,20.78,3.07,40.01,6.38,57.17,9.83,16.86,3.43,30.9,8.44,41.71,14.9,9.29,5.55,13.8,14.01,13.8,25.87,0,16.71-5.98,28.19-18.27,35.1-13.58,7.59-32.42,11.45-56.01,11.45-26.95,0-47.13-6.47-59.97-19.26-13.01-12.91-19.32-29.24-19.32-49.89,0-4.23-3.43-7.68-7.68-7.68H23.5c-4.23,0-7.68,3.45-7.68,7.68,0,19.83,3.9,38.99,11.59,56.95,7.73,18.08,18.75,34.03,32.73,47.4,13.99,13.44,31.38,24.25,51.63,32.11,20.2,7.86,42.92,11.83,67.54,11.83s47.07-2.45,67.46-7.25c20.77-4.87,38.94-12.23,54.02-21.9,15.36-9.84,27.57-22.52,36.29-37.66,8.78-15.23,13.23-33.16,13.23-53.24,0-28.75-6.46-51.44-19.21-67.46ZM258.08,234.13h.03v.05l-.03-.05Z"/>
      </g>
    </g>
    <path class="cls-2" d="M758.09,359.46c-10.85,42.46-31.18,75.29-60.92,98.58-29.74,23.3-67.42,34.92-112.97,34.92-56.4,0-100.91-17.84-133.51-53.53-32.61-35.69-48.91-85.09-48.91-148.26s16.3-111.91,48.91-147.87c32.61-35.96,77.11-53.97,133.51-53.97s100.8,18.01,133.13,53.97c32.33,35.96,48.52,85.25,48.52,147.87h-90.06c0-41.91-7.76-73.85-23.3-95.88-15.53-21.97-38.28-32.99-68.3-32.99s-52.93,11.12-68.68,33.37c-15.81,22.25-23.68,54.08-23.68,95.44s8.04,73.85,24.07,95.88c16.03,21.97,38.83,32.99,68.3,32.99,20.71,0,37.79-5.07,51.22-15.15,13.44-10.08,23.52-25.22,30.29-45.38h92.37ZM727.79,250.8l38.06,40.37-1.54,23.3h-327.62v-63.66"/>
    <path class="cls-2" d="M1789.06,359.46c-10.85,42.46-31.17,75.29-60.92,98.58-29.74,23.3-67.42,34.92-112.97,34.92-56.4,0-100.91-17.84-133.51-53.53-32.61-35.69-48.91-85.09-48.91-148.26s16.3-111.91,48.91-147.87c32.61-35.96,77.11-53.97,133.51-53.97s100.8,18.01,133.13,53.97c32.33,35.96,48.53,85.25,48.53,147.87h-90.06c0-41.91-7.77-73.85-23.3-95.88-15.53-21.97-38.28-32.99-68.3-32.99s-52.93,11.12-68.68,33.37c-15.81,22.25-23.68,54.08-23.68,95.44s8.04,73.85,24.07,95.88c16.03,21.97,38.83,32.99,68.3,32.99,20.71,0,37.79-5.07,51.22-15.15,13.44-10.08,23.52-25.22,30.29-45.38h92.37ZM1467.67,250.8h291.1l38.06,40.37-1.54,23.3h-327.62v-63.67Z"/>
    <path class="cls-2" d="M1390.71,6.78h-96.78v486.17h96.78V6.78Z"/>
  </g>
</svg>