<svg width="128" height="128" viewBox="0 0 128 128" fill="none" xmlns="http://www.w3.org/2000/svg">
<g filter="url(#filter0_d_1833_1585)">
<rect x="24" y="20" width="80" height="80" rx="14" fill="#9EF089"/>
<path d="M56.3182 71.556C56.3182 72.2709 56.3919 72.9602 56.3021 73.6303C56.1034 75.1307 54.8498 76.2208 53.3397 76.2464C51.9451 76.2721 50.5505 76.2689 49.1526 76.2496C47.3861 76.2272 46.0748 74.9191 46.0203 73.1526C46.0075 72.707 46.0331 72.2581 46.0075 71.8125C46.0011 71.6778 45.8664 71.5528 45.8055 71.4213C45.6933 71.1841 45.5009 70.9436 45.4945 70.7C45.4657 69.222 45.4785 67.7408 45.4785 66.2628C45.4785 63.8614 45.4881 61.4633 45.4689 59.062C45.4657 58.5875 45.5875 58.2092 45.8857 57.8405C46.4756 57.1063 47.027 56.3368 47.6554 55.5C47.245 55.5 46.934 55.5 46.6198 55.5C45.1579 55.4808 44.0261 54.3587 44.0037 52.8967C43.9973 52.5473 44.0005 52.1978 44.0037 51.8515C44.0229 50.8128 44.709 50.1267 45.7478 50.1203C46.9597 50.1139 48.1748 50.1203 49.4251 50.1203C49.6528 49.1809 49.874 48.2479 50.0984 47.3182C50.1978 46.8982 50.2972 46.4782 50.403 46.0582C50.7845 44.5449 51.8008 43.7466 53.359 43.7434C60.252 43.7434 67.145 43.7434 74.0381 43.7434C74.4709 43.7434 74.9133 43.7082 75.3333 43.7851C76.4907 44.0031 77.273 44.6892 77.5743 45.837C77.943 47.238 78.2604 48.6519 78.6163 50.1171C78.7574 50.1171 78.9049 50.1171 79.0523 50.1171C80.1264 50.1171 81.2004 50.1107 82.2744 50.1171C83.2907 50.1235 83.9897 50.8096 83.9961 51.8227C83.9993 52.3517 84.0185 52.8903 83.9288 53.4065C83.714 54.6376 82.6688 55.4776 81.412 55.4968C81.1074 55.5 80.8028 55.4968 80.4374 55.4968C80.5175 55.6347 80.5624 55.7277 80.6233 55.811C81.1844 56.558 81.7647 57.2922 82.3001 58.0585C82.4572 58.2797 82.563 58.5907 82.563 58.86C82.579 62.781 82.5726 66.702 82.5758 70.623C82.5758 70.9821 82.5021 71.2771 82.1622 71.4726C82.0757 71.5239 82.0212 71.697 82.0179 71.8157C82.0019 72.2902 82.0179 72.7647 82.0051 73.2392C81.957 74.8871 80.6522 76.2112 79.0075 76.24C77.5711 76.2657 76.1316 76.2657 74.6953 76.24C73.0506 76.2112 71.7361 74.8839 71.6912 73.2424C71.6752 72.6877 71.6912 72.1331 71.6912 71.5496H56.315L56.3182 71.556ZM49.8483 54.1343H78.1578C78.145 54.0124 78.1418 53.9162 78.1194 53.8233C77.5359 51.3706 76.9524 48.918 76.3625 46.4654C76.1188 45.4522 75.6379 45.0836 74.5799 45.0836C70.2549 45.0836 65.9299 45.0836 61.605 45.0836C58.8413 45.0836 56.0809 45.0836 53.3173 45.0836C52.4933 45.0836 51.9451 45.4522 51.7592 46.2057C51.1147 48.8282 50.4896 51.4572 49.8483 54.1343ZM52.5478 70.1421H75.5096V67.8754H52.5478V70.1421ZM71.2616 66.5193C74.442 66.5064 77.6224 66.5128 80.8028 66.5096C80.9375 66.5096 81.0722 66.4968 81.21 66.4904V64.4578C81.0209 64.4578 80.8541 64.4578 80.6906 64.4578C78.5009 64.4578 76.3112 64.461 74.1182 64.4578C73.4129 64.4578 73.134 63.9993 73.4514 63.3709C74.115 62.066 74.7915 60.7676 75.4648 59.4691C75.7629 58.892 76.247 58.5746 76.8883 58.5009C77.4846 58.4336 78.0809 58.3791 78.6772 58.3117C79.3088 58.2412 79.9404 58.1643 80.649 58.0809C80.0687 57.305 79.5172 56.6061 79.0075 55.8816C78.7991 55.5834 78.5714 55.4904 78.2124 55.4904C69.1296 55.5 60.0468 55.4968 50.9673 55.5C50.4254 55.5 49.8003 55.359 49.3642 55.577C48.925 55.7982 48.6717 56.3849 48.3415 56.8177C48.0337 57.2185 47.7356 57.6257 47.3925 58.0841C48.6525 58.2252 49.8291 58.3727 51.0057 58.4849C51.7688 58.5586 52.301 58.9081 52.644 59.5974C53.2596 60.8317 53.9072 62.05 54.5388 63.2747C54.9203 64.0153 54.6478 64.4546 53.8078 64.4546C51.6469 64.4546 49.4829 64.4546 47.322 64.4546C47.1617 64.4546 47.0046 64.4546 46.8347 64.4546V66.4872C46.9501 66.4968 47.0174 66.5064 47.0879 66.5064C50.3517 66.5064 53.6155 66.5064 56.8824 66.5128H71.2648L71.2616 66.5193ZM47.3893 71.572C47.3893 72.2036 47.3316 72.8224 47.4021 73.4219C47.5111 74.3164 48.2293 74.9031 49.1398 74.9095C50.5056 74.9223 51.8746 74.9223 53.2404 74.9095C54.1669 74.8999 54.8915 74.2907 54.9941 73.3802C55.0614 72.7935 55.0069 72.1908 55.0069 71.572H47.3925H47.3893ZM73.0314 71.5624C73.0314 72.1331 73.0185 72.6749 73.0314 73.2135C73.0602 74.1433 73.7816 74.8903 74.7113 74.9063C76.1316 74.9288 77.5519 74.9255 78.9722 74.9063C79.7705 74.8967 80.5015 74.3388 80.6105 73.5566C80.7003 72.9089 80.6297 72.2357 80.6297 71.5624H73.0282H73.0314ZM75.1089 63.0856H81.21V59.4146C81.0882 59.4146 80.992 59.405 80.8958 59.4146C79.607 59.5557 78.3182 59.6904 77.0325 59.8475C76.9011 59.8635 76.7312 59.9693 76.6702 60.0815C76.1444 61.0593 75.6411 62.0532 75.1057 63.0856H75.1089ZM52.8813 63.1016C52.8749 63.0407 52.8813 62.9958 52.8652 62.9637C52.3747 62.0115 51.8938 61.0529 51.3808 60.1136C51.3071 59.9757 51.0827 59.8667 50.916 59.841C50.2427 59.7384 49.563 59.6711 48.8865 59.5974C48.2133 59.5236 47.54 59.4595 46.8475 59.389V63.1016H52.8845H52.8813ZM51.166 67.8786H46.8475V70.1229H51.166V67.8786ZM81.2004 70.1389V67.8882H76.8979V70.1389H81.2004ZM49.1142 51.4572C47.9504 51.4572 46.8507 51.4444 45.7542 51.4732C45.6163 51.4764 45.3759 51.6752 45.3727 51.7906C45.3535 52.2747 45.3567 52.7685 45.4432 53.2398C45.5426 53.772 45.9594 54.1343 46.4018 54.1471C47.0142 54.1663 47.6265 54.1631 48.2389 54.1471C48.3351 54.1471 48.489 54.0252 48.5114 53.9323C48.723 53.1276 48.909 52.3164 49.1142 51.4572ZM78.9337 51.4572C79.1389 52.3228 79.3281 53.1468 79.5429 53.9675C79.5653 54.0509 79.7384 54.1439 79.8474 54.1471C80.3476 54.1663 80.8477 54.1567 81.3511 54.1567C82.0244 54.1567 82.4476 53.8649 82.5758 53.2077C82.6656 52.7492 82.6624 52.2683 82.6463 51.797C82.6431 51.6784 82.4315 51.4732 82.3129 51.47C81.2036 51.4444 80.0911 51.454 78.9369 51.454L78.9337 51.4572Z" fill="#03594F"/>
</g>
<defs>
<filter id="filter0_d_1833_1585" x="0.459999" y="0.379999" width="127.08" height="127.08" filterUnits="userSpaceOnUse" color-interpolation-filters="sRGB">
<feFlood flood-opacity="0" result="BackgroundImageFix"/>
<feColorMatrix in="SourceAlpha" type="matrix" values="0 0 0 0 0 0 0 0 0 0 0 0 0 0 0 0 0 0 127 0" result="hardAlpha"/>
<feOffset dy="3.92"/>
<feGaussianBlur stdDeviation="11.77"/>
<feComposite in2="hardAlpha" operator="out"/>
<feColorMatrix type="matrix" values="0 0 0 0 0 0 0 0 0 0 0 0 0 0 0 0 0 0 0.08 0"/>
<feBlend mode="normal" in2="BackgroundImageFix" result="effect1_dropShadow_1833_1585"/>
<feBlend mode="normal" in="SourceGraphic" in2="effect1_dropShadow_1833_1585" result="shape"/>
</filter>
</defs>
</svg>
