<svg width="512" height="512" viewBox="0 0 512 512" fill="none" xmlns="http://www.w3.org/2000/svg">
<path d="M240.625 467.492C240.62 467.492 240.627 467.492 240.622 467.492C174.236 467.492 118.381 464.377 74.863 460.56C48.038 458.207 31.242 430.437 41.526 405.55C70.052 336.515 105.271 268.319 146.587 202.179C174.71 157.158 201.859 119.211 224.817 89.355C240.828 68.533 272.151 68.527 288.163 89.348C311.007 119.055 338.011 156.787 365.994 201.531C407.099 267.256 442.186 335.023 470.665 403.633C481.005 428.542 464.144 456.353 437.278 458.714C370.936 464.545 305.006 467.492 240.625 467.492V467.492Z" fill="#6C63E2"/>
<path d="M265.871 74.846C258.081 76.894 250.789 81.779 245.397 89.49C224.336 119.61 199.433 157.897 173.637 203.318C135.735 270.045 103.426 338.846 77.263 408.487C68.711 431.237 80.563 456.376 101.177 462.661C91.96 461.996 83.189 461.287 74.864 460.56C48.035 458.205 31.246 430.44 41.523 405.545C70.05 336.518 105.274 268.321 146.59 202.18C174.714 157.162 201.859 119.207 224.819 89.359C234.954 76.176 251.236 71.336 265.871 74.846V74.846Z" fill="#9891FF"/>
<path d="M441.838 272.061V269.167C441.838 258.959 449.742 250.494 459.927 249.795L491.254 247.646C502.475 246.876 512 255.771 512 267.018V274.21C512 285.457 502.474 294.352 491.254 293.582L459.927 291.433C449.743 290.735 441.838 282.27 441.838 272.061Z" fill="#6C63E2"/>
<path d="M417.664 178.948L416.217 176.441C411.113 167.6 413.726 156.317 422.196 150.62L448.251 133.096C457.584 126.819 470.28 129.759 475.904 139.499L479.5 145.728C485.124 155.468 481.321 167.934 471.219 172.878L443.015 186.68C433.846 191.168 422.768 187.789 417.664 178.948Z" fill="#6C63E2"/>
<path d="M350.172 110.397L347.665 108.95C338.824 103.846 335.446 92.768 339.933 83.599L353.735 55.395C358.679 45.293 371.145 41.491 380.885 47.114L387.114 50.71C396.854 56.334 399.794 69.03 393.517 78.363L375.993 104.418C370.296 112.888 359.013 115.501 350.172 110.397V110.397Z" fill="#6C63E2"/>
<path d="M70.162 272.061V269.167C70.162 258.959 62.258 250.494 52.073 249.795L20.746 247.646C9.526 246.876 0 255.771 0 267.018V274.21C0 285.457 9.526 294.352 20.746 293.582L52.073 291.433C62.257 290.735 70.162 282.27 70.162 272.061Z" fill="#6C63E2"/>
<path d="M94.336 178.948L95.783 176.441C100.887 167.6 98.274 156.317 89.804 150.62L63.749 133.096C54.416 126.819 41.72 129.759 36.096 139.499L32.5 145.728C26.876 155.468 30.679 167.934 40.781 172.878L68.985 186.68C78.154 191.168 89.232 187.789 94.336 178.948Z" fill="#6C63E2"/>
<path d="M161.828 110.397L164.335 108.95C173.176 103.846 176.554 92.768 172.067 83.599L158.265 55.395C153.321 45.293 140.855 41.491 131.115 47.114L124.886 50.71C115.146 56.334 112.206 69.03 118.483 78.363L136.007 104.418C141.704 112.888 152.987 115.501 161.828 110.397Z" fill="#6C63E2"/>
<path d="M244.901 180.12C252.371 179.369 259.841 179.369 267.311 180.12C276.762 181.071 283.997 188.964 284.346 198.456C285.485 229.505 285.485 260.554 284.346 291.603C283.998 301.095 276.762 308.989 267.311 309.939C259.841 310.69 252.371 310.69 244.901 309.939C235.45 308.988 228.215 301.095 227.866 291.603C226.727 260.554 226.727 229.505 227.866 198.456C228.215 188.963 235.45 181.07 244.901 180.12V180.12Z" fill="white"/>
<path d="M245.443 344.015C252.552 343.675 259.661 343.675 266.77 344.015C276.567 344.484 284.435 352.37 284.877 362.168C285.308 371.72 285.308 381.272 284.877 390.825C284.435 400.623 276.567 408.509 266.77 408.978C259.661 409.318 252.552 409.318 245.443 408.978C235.646 408.509 227.778 400.623 227.336 390.825C226.905 381.273 226.905 371.721 227.336 362.168C227.778 352.37 235.646 344.484 245.443 344.015V344.015Z" fill="white"/>
</svg>
