<svg xmlns="http://www.w3.org/2000/svg" width="18.594" height="18.595" viewBox="0 0 18.594 18.595">
  <g id="facebook" transform="translate(-1813.703 -573)">
    <g id="facebook-2" data-name="facebook" transform="translate(1813.703 573)">
      <path id="Subtraction_82" data-name="Subtraction 82" d="M207.3-407.406h-6.973A2.326,2.326,0,0,1,198-409.73v-13.945A2.326,2.326,0,0,1,200.324-426h13.945a2.327,2.327,0,0,1,2.325,2.324v13.945a2.327,2.327,0,0,1-2.325,2.324h-3.486V-413.8h1.742l1.163-2.905h-2.905v-2.325c0-.54.376-.583.868-.583h1.456v-2.905h-2.324a3.491,3.491,0,0,0-3.487,3.487v2.325h-2.325v2.905H207.3v6.391Z" transform="translate(-198 426)" fill="#fff"/>
    </g>
  </g>
</svg>
