<svg width="48" height="48" viewBox="0 0 48 48" fill="none" xmlns="http://www.w3.org/2000/svg">
<g clip-path="url(#clip0_3013_9973)">
<rect width="48" height="48" fill="white"/>
<path d="M49.6 46.5H6.4C5.76348 46.5 5.15303 46.7634 4.70294 47.2322C4.25286 47.7011 4 48.337 4 49C4 49.663 4.25286 50.2989 4.70294 50.7678C5.15303 51.2366 5.76348 51.5 6.4 51.5H49.6C50.2365 51.5 50.847 51.2366 51.2971 50.7678C51.7471 50.2989 52 49.663 52 49C52 48.337 51.7471 47.7011 51.2971 47.2322C50.847 46.7634 50.2365 46.5 49.6 46.5Z" fill="#442D51"/>
<path d="M27.9987 4C27.3622 4 26.7517 4.26339 26.3016 4.73223C25.8515 5.20107 25.5987 5.83696 25.5987 6.5V32.975L17.7027 24.725C17.2508 24.2542 16.6378 23.9898 15.9987 23.9898C15.3596 23.9898 14.7466 24.2542 14.2947 24.725C13.8428 25.1958 13.5889 25.8342 13.5889 26.5C13.5889 27.1658 13.8428 27.8042 14.2947 28.275L26.2947 40.775C26.5178 41.0093 26.7832 41.1953 27.0757 41.3222C27.3682 41.4492 27.6819 41.5145 27.9987 41.5145C28.3155 41.5145 28.6292 41.4492 28.9217 41.3222C29.2141 41.1953 29.4796 41.0093 29.7027 40.775L41.7027 28.275C41.9265 28.0419 42.104 27.7652 42.2251 27.4606C42.3462 27.1561 42.4085 26.8297 42.4085 26.5C42.4085 26.1704 42.3462 25.8439 42.2251 25.5394C42.104 25.2348 41.9265 24.9581 41.7027 24.725C41.4789 24.4919 41.2133 24.307 40.9209 24.1809C40.6285 24.0547 40.3151 23.9898 39.9987 23.9898C39.6822 23.9898 39.3689 24.0547 39.0765 24.1809C38.7841 24.307 38.5185 24.4919 38.2947 24.725L30.3987 32.975V6.5C30.3987 5.83696 30.1458 5.20107 29.6957 4.73223C29.2457 4.26339 28.6352 4 27.9987 4V4Z" fill="#442D51"/>
</g>
<defs>
<clipPath id="clip0_3013_9973">
<rect width="48" height="48" fill="white"/>
</clipPath>
</defs>
</svg>
