<svg width="48" height="48" viewBox="0 0 48 48" fill="none" xmlns="http://www.w3.org/2000/svg">
<rect width="48" height="48" fill="white"/>
<g clip-path="url(#clip0_3013_9985)">
<path d="M31.8751 13.0716C34.5337 13.0716 36.6966 10.9087 36.6966 8.25014C36.6966 5.5916 34.5337 3.42871 31.8751 3.42871C29.2166 3.42871 27.0537 5.5916 27.0537 8.25014C27.0537 10.9087 29.2166 13.0716 31.8751 13.0716ZM31.8751 6.643C32.7613 6.643 33.4823 7.36396 33.4823 8.25014C33.4823 9.13632 32.7613 9.85728 31.8751 9.85728C30.989 9.85728 30.268 9.13632 30.268 8.25014C30.268 7.36396 30.989 6.643 31.8751 6.643ZM11.4644 28.5001C7.03345 28.5001 3.42871 32.1049 3.42871 36.5359C3.42871 40.9668 7.03345 44.5716 11.4644 44.5716C15.8954 44.5716 19.5001 40.9668 19.5001 36.5359C19.5001 32.1049 15.8954 28.5001 11.4644 28.5001ZM11.4644 41.3573C8.80589 41.3573 6.643 39.1944 6.643 36.5359C6.643 33.8773 8.80589 31.7144 11.4644 31.7144C14.123 31.7144 16.2859 33.8773 16.2859 36.5359C16.2859 39.1944 14.123 41.3573 11.4644 41.3573ZM36.5359 28.5001C32.1049 28.5001 28.5001 32.1049 28.5001 36.5359C28.5001 40.9668 32.1049 44.5716 36.5359 44.5716C40.9668 44.5716 44.5716 40.9668 44.5716 36.5359C44.5716 32.1049 40.9668 28.5001 36.5359 28.5001ZM36.5359 41.3573C33.8773 41.3573 31.7144 39.1944 31.7144 36.5359C31.7144 33.8773 33.8773 31.7144 36.5359 31.7144C39.1944 31.7144 41.3573 33.8773 41.3573 36.5359C41.3573 39.1944 39.1944 41.3573 36.5359 41.3573ZM28.5305 19.6006L32.2979 25.2859H39.4287V22.0716H34.0238L29.9705 15.9547L27.4489 13.6607C26.4923 12.7905 25.2546 12.347 23.9625 12.4118C22.6752 12.4765 21.4915 13.0382 20.6276 13.9941L15.3087 19.7321L15.2922 19.7503C13.5258 21.7153 13.6784 24.7608 15.6325 26.5393L15.6563 26.561L23.2193 32.9104L21.6947 41.4775L24.8592 42.0406L26.7095 31.6436L21.5107 27.279L28.5305 19.6006ZM17.6756 21.9068L22.9926 16.1709L23.0092 16.1528C23.2973 15.8322 23.6933 15.6437 24.1237 15.6221C24.5545 15.6002 24.967 15.7483 25.2859 16.0384L26.4576 17.1044L19.0467 25.2106L17.7764 24.1441C17.1462 23.5511 17.1 22.5554 17.6756 21.9068V21.9068Z" fill="#442D51"/>
</g>
<defs>
<clipPath id="clip0_3013_9985">
<rect width="41.1429" height="41.1429" fill="white" transform="translate(3.42871 3.42871)"/>
</clipPath>
</defs>
</svg>
