<svg width="48" height="48" viewBox="0 0 48 48" fill="none" xmlns="http://www.w3.org/2000/svg">
<g clip-path="url(#clip0_3013_9980)">
<rect width="48" height="48" fill="white"/>
<path d="M36.5702 24.493C36.5073 24.052 36.2238 23.677 35.8214 23.4925L27.4865 19.6704L33.4926 6.57282C33.7503 6.01081 33.5802 5.34482 33.0836 4.97588C32.58 4.60952 31.8987 4.63717 31.4353 5.04434L12.0816 22.1087C11.7491 22.4001 11.5883 22.8452 11.6534 23.2814C11.7174 23.72 11.9998 24.0974 12.4022 24.2819L20.7371 28.104L14.731 41.2016C14.4733 41.7636 14.6434 42.4296 15.14 42.7985C15.2157 42.8534 15.2947 42.9012 15.3757 42.9383C15.8377 43.1501 16.3921 43.0787 16.7872 42.7324L36.1409 25.668C36.4721 25.3732 36.6366 24.9327 36.5702 24.493ZM19.6852 36.6831L23.6645 28.0053C23.9659 27.348 23.677 26.57 23.0198 26.2686L15.3279 22.7414L28.5384 11.0913L24.5591 19.7691C24.2577 20.4264 24.5466 21.2044 25.2038 21.5058L32.8957 25.033L19.6852 36.6831Z" fill="#442D51"/>
</g>
<defs>
<clipPath id="clip0_3013_9980">
<rect width="48" height="48" fill="white"/>
</clipPath>
</defs>
</svg>
