<svg xmlns="http://www.w3.org/2000/svg" width="201" height="236" viewBox="0 0 201 236">
  <g id="Group_23156" data-name="Group 23156" transform="translate(-1468 -1696)">
    <path id="Polygon_48" data-name="Polygon 48" d="M159.824,0A30,30,0,0,1,185.7,14.812l41.388,70.5a30,30,0,0,1,0,30.376l-41.388,70.5A30,30,0,0,1,159.824,201H76.176A30,30,0,0,1,50.3,186.188l-41.388-70.5a30,30,0,0,1,0-30.376L50.3,14.812A30,30,0,0,1,76.176,0Z" transform="translate(1669 1696) rotate(90)" fill="#241336"/>
    <g id="_2874802" data-name="2874802" transform="translate(1536.5 2214.838)">
      <path id="Path_85693" data-name="Path 85693" d="M27.98-420.664C20.341-419.5,12.654-415.156,5.4-407.9a31.316,31.316,0,0,0-4.588,5.326A3.148,3.148,0,0,0,.5-400.883c0,1.368.291,1.961,1.828,3.741,5.3,6.15,12.239,11.452,18.255,13.97A25.782,25.782,0,0,0,32.2-380.945a26.461,26.461,0,0,0,11.512-2.869,53.874,53.874,0,0,0,15.156-11.5c3.16-3.4,3.486-3.922,3.486-5.569,0-1.4-.278-1.961-2-3.934a54.068,54.068,0,0,0-15.386-12.457,31.026,31.026,0,0,0-10.157-3.4A34.886,34.886,0,0,0,27.98-420.664Zm5.774,6.646a13.825,13.825,0,0,1,5.121,2.058,19.108,19.108,0,0,1,3.632,3.632,13.086,13.086,0,0,1,2.24,7.4,13.133,13.133,0,0,1-5.387,10.762,12.9,12.9,0,0,1-7.953,2.6,13.247,13.247,0,0,1-13.292-13.3,12.782,12.782,0,0,1,3.632-9.14,13.062,13.062,0,0,1,4.757-3.268,17.483,17.483,0,0,1,3.051-.835A21.216,21.216,0,0,1,33.754-414.018Z" fill="#e8630a"/>
      <path id="Path_85694" data-name="Path 85694" d="M185.724-334.457a9.783,9.783,0,0,0-5.992,3.426,11.683,11.683,0,0,0-1.9,3.777,11.9,11.9,0,0,0,.061,4.673,9.718,9.718,0,0,0,6.924,6.84,11.269,11.269,0,0,0,4.757-.048,9.584,9.584,0,0,0,6.8-11.524,11.217,11.217,0,0,0-1.876-3.716,9.978,9.978,0,0,0-5.084-3.232A12.388,12.388,0,0,0,185.724-334.457Z" transform="translate(-155.686 -75.869)" fill="#ffc49d"/>
    </g>
  </g>
</svg>
