<svg xmlns="http://www.w3.org/2000/svg" width="201" height="236" viewBox="0 0 201 236">
  <g id="Group_23152" data-name="Group 23152" transform="translate(-495.5 -1695.5)">
    <path id="Polygon_44" data-name="Polygon 44" d="M159.824,0A30,30,0,0,1,185.7,14.812l41.388,70.5a30,30,0,0,1,0,30.376l-41.388,70.5A30,30,0,0,1,159.824,201H76.176A30,30,0,0,1,50.3,186.188l-41.388-70.5a30,30,0,0,1,0-30.376L50.3,14.812A30,30,0,0,1,76.176,0Z" transform="translate(696.5 1695.5) rotate(90)" fill="#241336"/>
    <g id="group" transform="translate(560 1777.43)">
      <path id="Path_85682" data-name="Path 85682" d="M19.049,31.241A13.335,13.335,0,1,0,5.714,17.906,13.335,13.335,0,0,0,19.049,31.241Z" transform="translate(6.286)" fill="#c7abfd"/>
      <path id="Path_85683" data-name="Path 85683" d="M42.78,24.922A24.347,24.347,0,0,0,1,41.907,2.333,2.333,0,0,0,3.333,44.24H47.342a2.333,2.333,0,0,0,2.333-2.333,23.491,23.491,0,0,0-1.132-7.29A24.174,24.174,0,0,0,42.78,24.922Z" transform="translate(0 17.335)" fill="#6c16fa"/>
      <circle id="Ellipse_1049" data-name="Ellipse 1049" cx="9.917" cy="9.917" r="9.917" transform="translate(43.585 12.574)" fill="#c7abfd"/>
      <path id="Path_85684" data-name="Path 85684" d="M28.575,17.67a17.459,17.459,0,0,0-8.881,2.466c.506.453,1.017.9,1.5,1.388a28.906,28.906,0,0,1,6.888,11.588A26.806,26.806,0,0,1,29.1,37.5H43.742a2.333,2.333,0,0,0,2.333-2.333,17.519,17.519,0,0,0-17.5-17.5Z" transform="translate(24.927 17.468)" fill="#6c16fa"/>
    </g>
  </g>
</svg>
