<svg xmlns="http://www.w3.org/2000/svg" width="201" height="236" viewBox="0 0 201 236">
  <g id="Group_23155" data-name="Group 23155" transform="translate(-1225 -1661)">
    <path id="Polygon_47" data-name="Polygon 47" d="M159.824,0A30,30,0,0,1,185.7,14.812l41.388,70.5a30,30,0,0,1,0,30.376l-41.388,70.5A30,30,0,0,1,159.824,201H76.176A30,30,0,0,1,50.3,186.188l-41.388-70.5a30,30,0,0,1,0-30.376L50.3,14.812A30,30,0,0,1,76.176,0Z" transform="translate(1426 1661) rotate(90)" fill="#241336"/>
    <path id="Path_85685" data-name="Path 85685" d="M14.453-476.871a15.967,15.967,0,0,0-12.016,8.992,17.824,17.824,0,0,0-1.529,4.5A13.889,13.889,0,0,0,.6-459.834a13.019,13.019,0,0,0,.251,3.309,27.148,27.148,0,0,0,5.078,10.418,69.527,69.527,0,0,0,11.434,11.388,112.741,112.741,0,0,0,10.681,7.509c1.563.924,1.826.936,3.252.091A95.818,95.818,0,0,0,49.805-441.8c5.169-5.546,7.9-10.2,8.889-15.165a20.636,20.636,0,0,0-.057-6.265,17.052,17.052,0,0,0-8.57-11.982,13.226,13.226,0,0,0-3.492-1.346,17.22,17.22,0,0,0-5.877-.228,16.674,16.674,0,0,0-5.523,2.1,17.817,17.817,0,0,0-4.77,4.6,6.959,6.959,0,0,1-.662.9,6.7,6.7,0,0,1-.685-.947,20.234,20.234,0,0,0-4.222-4.211,15.769,15.769,0,0,0-6-2.431A22.709,22.709,0,0,0,14.453-476.871Z" transform="translate(1295.4 2229.945)" fill="#ff719b"/>
  </g>
</svg>
