<svg xmlns="http://www.w3.org/2000/svg" width="201" height="236" viewBox="0 0 201 236">
  <g id="Group_23153" data-name="Group 23153" transform="translate(-739 -1661)">
    <path id="Polygon_45" data-name="Polygon 45" d="M159.824,0A30,30,0,0,1,185.7,14.812l41.388,70.5a30,30,0,0,1,0,30.376l-41.388,70.5A30,30,0,0,1,159.824,201H76.176A30,30,0,0,1,50.3,186.188l-41.388-70.5a30,30,0,0,1,0-30.376L50.3,14.812A30,30,0,0,1,76.176,0Z" transform="translate(940 1661) rotate(90)" fill="#241336"/>
    <g id="_566410" data-name="566410" transform="translate(807 2258.775)">
      <path id="Path_85686" data-name="Path 85686" d="M241.981-511.539a1.8,1.8,0,0,0-.729.742c-.239.465-.251.729-.251,4.714s.013,4.249.251,4.714a1.984,1.984,0,0,0,1.634,1.006,1.984,1.984,0,0,0,1.634-1.006c.239-.465.251-.729.251-4.714s-.013-4.249-.251-4.714A1.838,1.838,0,0,0,241.981-511.539Z" transform="translate(-210.703 0)" fill="#dd8400"/>
      <path id="Path_85687" data-name="Path 85687" d="M72.579-440.645a1.824,1.824,0,0,0-1.043,2.175c.126.465.553.943,2.992,3.407,3.093,3.105,3.545,3.445,4.438,3.294a2.134,2.134,0,0,0,1.559-1.559c.151-.893-.189-1.345-3.294-4.438-2.351-2.326-2.954-2.866-3.369-2.979A1.3,1.3,0,0,0,72.579-440.645Z" transform="translate(-62.484 -61.994)" fill="#dd8400"/>
      <path id="Path_85688" data-name="Path 85688" d="M374.9-440.688c-.327.088-1.169.855-3.306,2.967-3.105,3.093-3.445,3.545-3.294,4.438a2.134,2.134,0,0,0,1.559,1.559c.893.151,1.345-.189,4.438-3.294,2.464-2.477,2.866-2.942,2.992-3.419a1.349,1.349,0,0,0-.063-1.081,1.639,1.639,0,0,0-1.106-1.131A1.334,1.334,0,0,0,374.9-440.688Z" transform="translate(-321.971 -62.039)" fill="#dd8400"/>
      <path id="Path_85689" data-name="Path 85689" d="M137.05-390.654a16.769,16.769,0,0,0-10.573,4.89,16.348,16.348,0,0,0-4.123,6.688,15.4,15.4,0,0,0-.754,5.381,12.032,12.032,0,0,0,.339,3.545c.779,3.344,1.886,5.343,4.878,8.775a9.262,9.262,0,0,1,2.238,5.883c.075,1.169.138,1.5.365,1.81.578.817.314.792,9.077.792s8.5.025,9.077-.792c.226-.314.289-.654.365-1.773a10.5,10.5,0,0,1,.779-3.558,8.782,8.782,0,0,1,1.961-2.9,18.492,18.492,0,0,0,2.565-3.482,17.067,17.067,0,0,0,1.911-11.453,16.875,16.875,0,0,0-13.238-13.5A22.529,22.529,0,0,0,137.05-390.654Zm2.326,7.719a1.984,1.984,0,0,1,1.006,1.634,2,2,0,0,1-1.974,1.886,7.677,7.677,0,0,0-2.464.578,5.494,5.494,0,0,0-2.791,3.206c-.691,1.8-2.238,2.288-3.319,1.056a1.905,1.905,0,0,1-.327-2.062,9.364,9.364,0,0,1,7.1-6.361A4.55,4.55,0,0,1,139.376-382.935Z" transform="translate(-106.313 -105.862)" fill="#ffcd81"/>
      <path id="Path_85690" data-name="Path 85690" d="M.981-270.736A2.014,2.014,0,0,0,0-269.114a1.984,1.984,0,0,0,1.006,1.634c.465.239.729.251,4.714.251s4.249-.013,4.714-.251a1.984,1.984,0,0,0,1.006-1.634,1.984,1.984,0,0,0-1.006-1.634c-.465-.239-.729-.251-4.739-.251C1.71-270.987,1.421-270.975.981-270.736Z" transform="translate(0 -210.506)" fill="#dd8400"/>
      <path id="Path_85691" data-name="Path 85691" d="M421.981-270.736a2.014,2.014,0,0,0-.981,1.622,1.984,1.984,0,0,0,1.006,1.634c.465.239.729.251,4.714.251s4.249-.013,4.714-.251a1.984,1.984,0,0,0,1.006-1.634,1.984,1.984,0,0,0-1.006-1.634c-.465-.239-.729-.251-4.739-.251C422.71-270.987,422.421-270.975,421.981-270.736Z" transform="translate(-368.074 -210.506)" fill="#dd8400"/>
      <path id="Path_85692" data-name="Path 85692" d="M196-58.881a6.88,6.88,0,0,0,.629,3.256,5.741,5.741,0,0,0,4.01,3.042,34.462,34.462,0,0,0,5.808,0A5.718,5.718,0,0,0,210.96-57.1a13.479,13.479,0,0,0,.126-1.785V-60H196Z" transform="translate(-171.36 -394.98)" fill="#e58f0f"/>
    </g>
  </g>
</svg>
