<svg width="105" height="30" viewBox="0 0 105 30" fill="none" xmlns="http://www.w3.org/2000/svg">
<path d="M40.286 14.5809C40.286 19.9756 35.7174 23.9616 30.5677 23.996C25.4978 24.0303 21.3279 19.7695 21.3165 14.6152C21.3051 9.40371 25.7142 5.14287 31.1032 5.15432C36.2073 5.16577 40.2974 9.36935 40.286 14.5809ZM37.1529 14.7641C37.1643 11.1447 34.3388 8.14378 30.8981 8.13233C27.4346 8.10942 24.4382 11.0073 24.4268 14.3861C24.4154 18.0285 27.2409 21.0179 30.7158 21.0294C34.2021 21.0408 37.1529 18.1659 37.1529 14.7641Z" fill="white"/>
<path d="M22.8432 5.95602C22.433 4.98244 22.0457 4.07758 21.6355 3.11546C24.0508 2.07315 26.4206 1.0423 28.8473 0C29.2575 0.950672 29.6449 1.85553 30.055 2.82911C27.6625 3.87141 25.2927 4.89081 22.8432 5.95602Z" fill="white"/>
<path d="M2.90524 20.2162V20.869C2.90524 23.721 2.89385 26.5731 2.91664 29.4251C2.91664 29.8718 2.79131 30.0207 2.34698 29.9978C1.57225 29.9634 0.808911 29.9863 0 29.9863V5.79572H1.70897C2.51408 5.79572 2.91664 6.20424 2.91664 7.02128V8.79663C2.9736 8.81954 3.03057 8.8539 3.07614 8.87681C3.13311 8.78518 3.17868 8.68209 3.24704 8.59046C5.71934 5.23448 9.94618 4.71905 13.1135 6.0477C16.6225 7.5138 18.6961 10.95 18.5366 14.9474C18.3657 19.0937 15.8934 22.3924 12.1223 23.5034C8.81827 24.477 5.35476 23.3431 3.25843 20.6056C3.17868 20.514 3.09893 20.4338 2.90524 20.2162V20.2162ZM9.08031 20.9148C12.7147 20.9263 15.4263 18.2461 15.4377 14.6267C15.4491 11.0416 12.7717 8.29266 9.2512 8.26975C5.6282 8.2583 2.93942 10.9385 2.92803 14.5808C2.90524 18.1545 5.59402 20.9034 9.08031 20.9148V20.9148Z" fill="white"/>
<path d="M67.7662 15.8523C68.1422 17.7078 68.9511 19.1395 70.5005 20.0902C73.1096 21.6937 76.6756 21.2699 78.7036 19.1052C78.9656 18.8303 79.1593 18.4752 79.41 18.1774C79.5353 18.0285 79.7176 17.8109 79.8771 17.7994C80.8569 17.765 81.8253 17.7765 82.8735 17.7765C82.7937 18.017 82.7367 18.2003 82.6684 18.3721C81.2215 21.7625 77.6212 23.996 73.7476 23.8242C70.2499 23.6752 67.4358 22.2321 65.6927 19.0937C62.4114 13.1377 66.2965 5.94465 73.0412 5.40631C77.7807 5.02834 81.8253 7.74291 82.919 12.1412C83.1697 13.1606 83.1241 14.2602 83.2267 15.3139C83.2722 15.7492 83.0785 15.8523 82.657 15.8523C78.8631 15.8408 75.0692 15.8408 71.2753 15.8408H68.37C68.1991 15.8523 68.0282 15.8523 67.7662 15.8523V15.8523ZM67.9143 13.0919H79.9227C79.8885 10.4918 76.9263 8.14379 73.7704 8.14379C70.455 8.13234 67.9143 11.0302 67.9143 13.0919Z" fill="white"/>
<path d="M104.201 17.765C103.814 18.8188 103.347 19.7007 102.686 20.4567C100.088 23.4118 96.8187 24.3854 93.0589 23.5607C89.3562 22.7475 86.9522 20.4223 86.0864 16.6769C84.7192 10.7323 89.0486 5.39483 95.1895 5.37192C100.749 5.34901 104.817 9.63276 104.532 15.1993C104.509 15.6919 104.372 15.8522 103.86 15.8522C99.1656 15.8293 94.4717 15.8408 89.7663 15.8408H89.0941C89.265 17.032 89.698 18.0285 90.4271 18.876C92.8197 21.6593 97.3769 21.7968 99.9404 19.1624C100.225 18.8646 100.464 18.5095 100.692 18.1544C100.863 17.8796 101.068 17.7536 101.399 17.7536C102.299 17.7765 103.21 17.765 104.201 17.765V17.765ZM101.216 13.0804C101.308 10.572 98.1744 8.08649 95.0299 8.14376C92.1475 8.20103 89.06 10.8125 89.2536 13.0804H101.216Z" fill="white"/>
<path d="M47.7713 8.4873V20.6284C47.9422 20.6399 48.1131 20.6628 48.284 20.6628C49.5714 20.6628 50.8702 20.6742 52.1576 20.6513C52.5222 20.6513 52.6362 20.7659 52.6248 21.1209C52.602 21.8425 52.6134 22.5756 52.6134 23.3315H44.7521V22.7474C44.7521 18.2116 44.7407 13.6645 44.7635 9.12872C44.7635 8.65911 44.6724 8.47585 44.1597 8.49876C43.2482 8.54457 42.3254 8.51021 41.3798 8.51021V5.79564H44.7065V0.595583C45.6636 0.595583 46.5636 0.584129 47.4637 0.61849C47.5434 0.61849 47.6801 0.893383 47.6801 1.04228C47.7029 2.4053 47.6915 3.76831 47.6915 5.13132V5.71547C47.8966 5.72692 48.0675 5.74983 48.2384 5.74983C49.5486 5.74983 50.8474 5.76128 52.1576 5.74983C52.5108 5.74983 52.6475 5.84146 52.6248 6.21944C52.602 6.80358 52.602 7.38773 52.6248 7.97188C52.6362 8.34986 52.5336 8.4873 52.1349 8.47585C50.8588 8.45294 49.5828 8.4644 48.3068 8.4644C48.1473 8.4644 47.9764 8.47585 47.7713 8.4873V8.4873Z" fill="white"/>
<path d="M58.9425 21.1065C59.9223 21.1065 60.7996 21.118 61.6882 21.0951C62.0642 21.0836 62.2123 21.1867 62.1895 21.5876C62.1554 22.2061 62.1668 22.8246 62.1895 23.4317C62.2009 23.7295 62.087 23.844 61.8022 23.8326H56.3335C56.0828 23.8326 55.9803 23.7295 56.0031 23.4775C56.0145 23.3859 56.0031 23.2828 56.0031 23.1911V1.69221C56.0031 1.24169 56.2347 1.01643 56.6981 1.01643C57.2449 1.01643 57.7918 1.05079 58.3387 1.00497C58.8172 0.970613 58.9767 1.10806 58.9653 1.61203C58.9425 5.03674 58.9539 8.45 58.9539 11.8747V20.4308C58.9425 20.6484 58.9425 20.8431 58.9425 21.1065Z" fill="white"/>
</svg>
