<svg width="668" height="182" viewBox="0 0 668 182" fill="none" xmlns="http://www.w3.org/2000/svg">
<path d="M54.6984 181.2C37.6984 181.2 24.5984 177.6 15.2984 170.3C5.99845 163 1.19844 153.1 0.898438 140.5H22.6984C22.9984 145.5 25.5984 150.2 30.2984 154.7C35.0984 159.1 43.1984 161.4 54.6984 161.4C64.9984 161.4 72.9984 159.3 78.4984 155.2C83.9984 151.1 86.6984 146 86.6984 140.1C86.6984 134.8 84.6984 130.6 80.5984 127.6C76.5984 124.6 69.9984 122.6 60.9984 121.7L46.8984 120.2C34.5984 118.9 24.5984 115.2 16.7984 109.2C8.99845 103.1 5.19844 94.6001 5.19844 83.6001C5.19844 75.4001 7.29844 68.3001 11.4984 62.4001C15.6984 56.5001 21.4984 52.0001 28.9984 48.8001C36.3984 45.6001 44.9984 44.1001 54.6984 44.1001C69.1984 44.1001 80.9984 47.3001 90.0984 53.8001C99.0984 60.3001 103.798 69.9001 104.198 82.6001H82.3984C82.1984 77.4001 79.8984 73.0001 75.2984 69.4001C70.6984 65.8001 63.8984 63.9001 54.7984 63.9001C45.6984 63.9001 38.8984 65.8001 34.1984 69.5001C29.4984 73.2001 27.1984 77.9001 27.1984 83.6001C27.1984 88.4001 28.8984 92.3001 32.1984 95.2001C35.4984 98.1001 40.9984 100 48.5984 100.8L62.6984 102.3C76.5984 103.8 87.6985 107.6 96.0984 113.8C104.498 120 108.698 128.8 108.698 140.1C108.698 148.2 106.398 155.3 101.798 161.5C97.1984 167.7 90.8984 172.6 82.7984 176C74.4984 179.4 65.1984 181.2 54.6984 181.2Z" fill="#01594F"/>
<path d="M194.302 181.6C183.002 181.6 173.202 179.7 165.002 175.8C156.802 171.9 150.102 166.8 144.902 160.4C139.702 154 135.902 146.9 133.402 139C130.902 131.1 129.602 123 129.602 114.8V110.4C129.602 102 130.902 93.8 133.402 85.9C135.902 78 139.702 70.8 144.902 64.5C150.102 58.1 156.702 53 164.702 49.2C172.702 45.4 182.102 43.5 192.902 43.5C207.002 43.5 218.502 46.5 227.702 52.6C236.802 58.7 243.602 66.5 248.102 76C252.502 85.5 254.802 95.7 254.802 106.5V116.9H139.702V99.4H237.602L232.302 108.9C232.302 99.7 230.802 91.7 227.902 85C225.002 78.3 220.602 73.1 214.802 69.4C209.002 65.7 201.602 63.8 192.702 63.8C183.502 63.8 175.902 65.9 169.802 70.1C163.702 74.3 159.202 80 156.202 87.3C153.202 94.6 151.702 103 151.702 112.5C151.702 121.7 153.202 130 156.202 137.3C159.202 144.7 163.802 150.5 170.102 154.8C176.402 159.1 184.402 161.2 194.102 161.2C204.302 161.2 212.602 158.9 218.902 154.4C225.302 149.9 229.102 144.6 230.402 138.6H252.202C250.402 147.5 246.902 155.2 241.502 161.6C236.202 168.1 229.502 173 221.402 176.4C213.602 179.9 204.502 181.6 194.302 181.6Z" fill="#01594F"/>
<path d="M265.797 65.3001V47.9001H354.997V65.3001H265.797ZM335.097 178.7C325.397 178.7 316.997 177.3 309.997 174.6C302.997 171.9 297.597 167.1 293.797 160.4C289.997 153.7 288.097 144.6 288.097 133.1V8.6001H310.397V136.1C310.397 143 312.297 148.4 316.097 152.2C319.897 156 325.297 157.9 332.197 157.9H354.997V178.7H335.097Z" fill="#01594F"/>
<path d="M366.102 65.3001V47.9001H455.302V65.3001H366.102ZM435.402 178.7C425.702 178.7 417.302 177.3 410.302 174.6C403.302 171.9 397.902 167.1 394.102 160.4C390.302 153.7 388.402 144.6 388.402 133.1V8.6001H410.702V136.1C410.702 143 412.602 148.4 416.402 152.2C420.202 156 425.602 157.9 432.502 157.9H455.302V178.7H435.402Z" fill="#01594F"/>
<path d="M468.898 18.7999V0.399902H510.098V18.7999H468.898ZM486.798 177.3V0.399902H510.098V177.3H486.798Z" fill="#01594F"/>
<path d="M606.802 181.6C595.502 181.6 585.702 179.7 577.502 175.8C569.302 171.9 562.602 166.8 557.402 160.4C552.202 154 548.402 146.9 545.902 139C543.402 131.1 542.102 123 542.102 114.8V110.4C542.102 102 543.302 93.8 545.902 85.9C548.402 78 552.202 70.8 557.402 64.5C562.602 58.1 569.202 53 577.202 49.2C585.202 45.4 594.602 43.5 605.402 43.5C619.502 43.5 631.002 46.5 640.202 52.6C649.302 58.7 656.102 66.5 660.602 76C665.002 85.5 667.302 95.7 667.302 106.5V116.9H552.202V99.4H650.102L644.802 108.9C644.802 99.7 643.302 91.7 640.402 85C637.502 78.3 633.102 73.1 627.302 69.4C621.502 65.7 614.102 63.8 605.202 63.8C596.002 63.8 588.402 65.9 582.302 70.1C576.202 74.3 571.702 80 568.702 87.3C565.702 94.6 564.202 103 564.202 112.5C564.202 121.7 565.702 130 568.702 137.3C571.702 144.7 576.302 150.5 582.602 154.8C588.902 159.1 596.902 161.2 606.602 161.2C616.802 161.2 625.102 158.9 631.402 154.4C637.802 149.9 641.602 144.6 642.902 138.6H664.702C662.902 147.5 659.402 155.2 654.002 161.6C648.702 168.1 642.002 173 633.902 176.4C626.102 179.9 617.002 181.6 606.802 181.6Z" fill="#01594F"/>
</svg>
