<svg xmlns="http://www.w3.org/2000/svg" width="201" height="236" viewBox="0 0 201 236">
  <g id="Group_23151" data-name="Group 23151" transform="translate(-252.5 -1660.5)">
    <path id="Polygon_43" data-name="Polygon 43" d="M159.824,0A30,30,0,0,1,185.7,14.812l41.388,70.5a30,30,0,0,1,0,30.376l-41.388,70.5A30,30,0,0,1,159.824,201H76.176A30,30,0,0,1,50.3,186.188l-41.388-70.5a30,30,0,0,1,0-30.376L50.3,14.812A30,30,0,0,1,76.176,0Z" transform="translate(453.5 1660.5) rotate(90)" fill="#241336"/>
    <g id="_153737" data-name="153737" transform="translate(295 2259.664)">
      <path id="Path_85695" data-name="Path 85695" d="M77.345-511.576c-.437.132-.966.437-16.39,9.326-5.424,3.122-9.855,5.715-9.855,5.754,0,.146,26.867,15.543,27.105,15.543s27.105-15.4,27.105-15.543c0-.079-24.327-14.128-25.491-14.723A3.674,3.674,0,0,0,77.345-511.576Z" transform="translate(-20.912)" fill="#00dbe2"/>
      <path id="Path_85696" data-name="Path 85696" d="M27-340.693v15.107l.37.714a3.745,3.745,0,0,0,.82,1.072c.251.2,5.7,3.373,12.1,7.064s12.13,7,12.739,7.355l1.085.648v-31.417l-3.942-2.262c-2.156-1.257-8.255-4.775-13.546-7.831L27-355.8Z" transform="translate(0 -135.246)" fill="#515de2"/>
      <path id="Path_85697" data-name="Path 85697" d="M293.533-347.7,280-339.89v31.418l1.1-.648c.6-.357,6.323-3.664,12.726-7.355s11.853-6.866,12.1-7.064a4.018,4.018,0,0,0,.833-1.072l.357-.728-.026-15.08-.04-15.08Z" transform="translate(-219.532 -135.506)" fill="#6191fb"/>
    </g>
  </g>
</svg>
