<svg xmlns="http://www.w3.org/2000/svg" width="17.927" height="17.927" viewBox="0 0 17.927 17.927">
  <g id="instagram" transform="translate(-1814 -618)">
    <g id="instagram-2" data-name="instagram" transform="translate(1814 618)">
      <path id="Path_7" data-name="Path 7" d="M12.325,0H5.6A5.6,5.6,0,0,0,0,5.6v6.723a5.6,5.6,0,0,0,5.6,5.6h6.723a5.6,5.6,0,0,0,5.6-5.6V5.6A5.6,5.6,0,0,0,12.325,0Zm3.922,12.325a3.926,3.926,0,0,1-3.922,3.922H5.6a3.926,3.926,0,0,1-3.922-3.922V5.6A3.926,3.926,0,0,1,5.6,1.681h6.723A3.926,3.926,0,0,1,16.246,5.6Z" fill="#fff"/>
      <path id="Path_8" data-name="Path 8" d="M132.482,128a4.482,4.482,0,1,0,4.482,4.482A4.482,4.482,0,0,0,132.482,128Zm0,7.283a2.8,2.8,0,1,1,2.8-2.8A2.8,2.8,0,0,1,132.482,135.283Z" transform="translate(-123.518 -123.518)" fill="#fff"/>
      <circle id="Ellipse_5" data-name="Ellipse 5" cx="0.597" cy="0.597" r="0.597" transform="translate(13.184 3.548)" fill="#fff"/>
    </g>
  </g>
</svg>
