<svg width="68" height="92" viewBox="0 0 68 92" fill="none" xmlns="http://www.w3.org/2000/svg">
<g clip-path="url(#clip0_3009_55277)">
<path d="M33.7205 57.7384L0 38.2646L33.647 18.959L67.3676 38.438L33.7205 57.7437V57.7384Z" fill="#00594F"/>
<path d="M67.3677 38.4336L67.5568 72.6952L33.9098 92.0009L33.7207 57.7393L67.3677 38.4336Z" fill="url(#paint0_linear_3009_55277)"/>
<path d="M33.9097 92.0004L0.189117 72.5266L0 38.2598L33.7206 57.7335L33.9097 91.9952V92.0004Z" fill="url(#paint1_linear_3009_55277)"/>
<path d="M33.7363 28.3509L11.4258 15.4595L33.689 2.68359L56.0048 15.575L33.7363 28.3509Z" fill="#6D561E"/>
<path d="M56.0048 15.5762L56.1309 38.2492L33.8624 51.025L33.7363 28.3521L56.0048 15.5762Z" fill="#FCD734"/>
<path d="M33.8623 51.0254L11.5465 38.1392L11.4204 15.4609L33.7362 28.3524L33.8623 51.0254Z" fill="url(#paint2_linear_3009_55277)"/>
<path d="M33.689 2.68359L33.7362 28.3509L56.0047 15.575L33.689 2.68359Z" fill="url(#paint3_linear_3009_55277)"/>
<path d="M31.304 34.4718L8.98828 21.5804L11.4258 15.4551L33.7416 28.3465L31.304 34.4718Z" fill="url(#paint4_linear_3009_55277)"/>
<path d="M36.1738 34.4718L58.4896 21.5804L56.0521 15.4551L33.7363 28.3465L36.1738 34.4718Z" fill="#FFEEA9"/>
<path d="M44.1275 2.79472L40.1035 0.457031C40.2611 0.525323 40.4135 0.604122 40.5605 0.682921L44.5845 3.02061C44.4374 2.93656 44.2851 2.86302 44.1275 2.79472Z" fill="#888888"/>
<path d="M44.1273 2.79376C42.1206 1.91121 39.6306 2.34723 37.1458 3.77611C36.8936 3.9232 36.6415 4.07555 36.3946 4.2489C33.7522 5.98773 31.1781 8.83498 29.2869 12.3914C29.1766 12.5963 29.0716 12.8064 28.9665 13.0113C28.7616 13.4263 28.5672 13.8413 28.3939 14.2511C27.2382 16.9355 26.6656 19.5831 26.6656 21.8893C26.6656 22.0994 26.6708 22.3043 26.6813 22.5039C26.6866 22.7088 26.7023 22.9137 26.7234 23.108C26.7391 23.2709 26.7601 23.4337 26.7811 23.5913C26.7916 23.7017 26.8074 23.8067 26.8284 23.9118C26.8442 24.0116 26.8599 24.1114 26.8862 24.2112C26.8967 24.2795 26.9125 24.3478 26.9282 24.4161L22.9043 22.0942C22.1846 18.8477 22.9463 14.4139 25.263 10.0537C26.0614 8.55131 26.9808 7.18021 27.9736 5.96146C29.5601 4.01776 31.341 2.46806 33.1271 1.43842C35.6066 0.00953869 38.0966 -0.42648 40.1034 0.456064L44.1273 2.79376Z" fill="#00594F"/>
<path d="M40.035 24.7367L42.3937 23.3814C43.3761 22.1732 44.2849 20.8126 45.0729 19.3312C46.6436 16.3736 47.4999 13.3845 47.6627 10.7579C47.8886 7.19617 46.8432 4.29113 44.5791 3.01984C44.5738 3.01459 44.5686 3.01459 44.5633 3.00934C44.5581 3.00934 44.5528 3.00934 44.5423 2.99883C44.5371 2.99358 44.5265 2.98832 44.5213 2.98832C44.516 2.98307 44.5055 2.97782 44.5003 2.97782C44.3795 2.90953 44.2534 2.85174 44.1273 2.79395C42.1206 1.91141 39.6305 2.34743 37.1457 3.77631C36.8936 3.9234 36.6414 4.07575 36.3945 4.2491C33.7521 5.98793 31.1781 8.83518 29.2869 12.3916C29.1766 12.5965 29.0715 12.8066 28.9664 13.0115C28.7616 13.4265 28.5725 13.8415 28.3938 14.2513C27.2381 16.9357 26.6655 19.5833 26.6655 21.8895C26.6655 22.0996 26.6708 22.3045 26.6813 22.5041C26.6865 22.709 26.7023 22.9086 26.7233 23.1082C26.7391 23.2711 26.7601 23.4339 26.7811 23.5915C26.7916 23.7019 26.8074 23.8069 26.8284 23.912C26.8441 24.0118 26.8652 24.1116 26.8862 24.2114C26.8967 24.2797 26.9124 24.348 26.9282 24.4163L33.7364 28.351L39.3679 25.1202L40.035 24.7367Z" fill="#7CEA62"/>
<mask id="mask0_3009_55277" style="mask-type:luminance" maskUnits="userSpaceOnUse" x="30" y="5" width="14" height="22">
<path d="M30.4318 26.2927L30.395 13.0492L43.9274 5.23242L43.9694 18.4758L30.4318 26.2927Z" fill="white"/>
</mask>
<g mask="url(#mask0_3009_55277)">
<path d="M42.3042 6.43555L40.4498 7.50721L32.0394 25.1423L33.899 24.0707L42.3042 6.43555ZM41.0592 13.4381C40.4866 13.7691 39.9876 14.1998 39.5568 14.7357C39.1208 15.2768 38.7793 15.8704 38.5324 16.5165C38.2855 17.1679 38.1647 17.8193 38.1647 18.476C38.1647 19.1326 38.2908 19.6317 38.5429 19.9994C38.7951 20.3619 39.1365 20.5615 39.5778 20.593C40.0138 20.6298 40.5129 20.4827 41.0855 20.1518C41.6581 19.8208 42.1519 19.3953 42.5827 18.8595C43.0134 18.3236 43.3496 17.73 43.5965 17.0839C43.8434 16.4325 43.9643 15.7811 43.9643 15.1297C43.9643 14.4783 43.8382 13.9687 43.586 13.601C43.3339 13.2385 42.9977 13.0389 42.5616 13.0021C42.1309 12.9653 41.6318 13.1124 41.0645 13.4381M41.0802 18.5075C40.6547 18.7544 40.308 18.7964 40.0401 18.6231C39.7722 18.455 39.6408 18.124 39.6408 17.6197C39.6408 17.1154 39.7669 16.6163 40.0348 16.1488C40.2975 15.6812 40.6442 15.324 41.0697 15.0771C41.4952 14.8302 41.8367 14.7935 42.0994 14.9563C42.3568 15.1192 42.4881 15.4606 42.4881 15.9754C42.4881 16.4902 42.362 16.963 42.0941 17.4358C41.8314 17.9086 41.49 18.2658 41.0802 18.5022M33.3159 16.4535C32.8904 16.7004 32.549 16.7372 32.2863 16.5585C32.0289 16.3852 31.8976 16.0437 31.8923 15.5447C31.8871 15.0456 32.0184 14.5571 32.2758 14.0895C32.5332 13.6167 32.8747 13.2595 33.3002 13.0126C33.7257 12.7657 34.0724 12.7237 34.3351 12.897C34.603 13.0651 34.7343 13.3961 34.7343 13.9004C34.7343 14.4047 34.6082 14.8933 34.3403 15.3713C34.0777 15.8494 33.7362 16.2118 33.3107 16.4587M33.2949 11.3736C32.7381 11.694 32.239 12.1248 31.7978 12.6659C31.3617 13.207 31.015 13.8006 30.7681 14.4467C30.5212 15.0981 30.4004 15.7495 30.4004 16.4009C30.4004 17.0523 30.5265 17.5619 30.7786 17.9296C31.0255 18.2921 31.3722 18.4865 31.8135 18.518C32.2548 18.5495 32.7591 18.4024 33.3159 18.082C33.8728 17.7615 34.3876 17.3203 34.8184 16.7844C35.2544 16.2486 35.5958 15.655 35.8427 15.0036C36.0897 14.3522 36.2105 13.7008 36.2105 13.0441C36.2105 12.3875 36.0844 11.8884 35.8322 11.5207C35.5801 11.1582 35.2386 10.9586 34.8026 10.9271C34.3666 10.8955 33.8623 11.0426 33.2949 11.3683" fill="#00594F"/>
</g>
</g>
<defs>
<linearGradient id="paint0_linear_3009_55277" x1="50.6361" y1="92.0009" x2="50.6361" y2="38.4336" gradientUnits="userSpaceOnUse">
<stop stop-color="#40C9A7"/>
<stop offset="0.91" stop-color="#D0FCF2"/>
</linearGradient>
<linearGradient id="paint1_linear_3009_55277" x1="16.9522" y1="92.0004" x2="16.9522" y2="38.2598" gradientUnits="userSpaceOnUse">
<stop stop-color="#036054"/>
<stop offset="0.35" stop-color="#248E7B"/>
<stop offset="1" stop-color="#40C7A5"/>
</linearGradient>
<linearGradient id="paint2_linear_3009_55277" x1="22.6466" y1="51.0254" x2="22.6466" y2="15.4609" gradientUnits="userSpaceOnUse">
<stop stop-color="#B59032"/>
<stop offset="1" stop-color="#FCD734"/>
</linearGradient>
<linearGradient id="paint3_linear_3009_55277" x1="44.8468" y1="28.3509" x2="44.8468" y2="2.68359" gradientUnits="userSpaceOnUse">
<stop stop-color="#FCD734"/>
<stop offset="0.55" stop-color="#B59032"/>
</linearGradient>
<linearGradient id="paint4_linear_3009_55277" x1="8.98828" y1="24.9687" x2="33.7363" y2="24.9687" gradientUnits="userSpaceOnUse">
<stop stop-color="#B59032"/>
<stop offset="1" stop-color="#FCD734"/>
</linearGradient>
<clipPath id="clip0_3009_55277">
<rect width="67.5567" height="92" fill="white"/>
</clipPath>
</defs>
</svg>
