<svg xmlns="http://www.w3.org/2000/svg" width="18.591" height="17.957" viewBox="0 0 18.591 17.957">
  <g id="linkedin" transform="translate(-1813.216 -686.043)">
    <path id="Path_85630" data-name="Path 85630" d="M3.52-29.546V-42.209H6.914v12.664Zm-.3-15.931a1.951,1.951,0,0,1,.6-1.431,1.922,1.922,0,0,1,1.406-.6,1.951,1.951,0,0,1,1.431.6,1.951,1.951,0,0,1,.6,1.431,1.922,1.922,0,0,1-.6,1.406,1.951,1.951,0,0,1-1.431.6,1.922,1.922,0,0,1-1.406-.6A1.922,1.922,0,0,1,3.216-45.477ZM9.953-29.546V-42.209h3.394v1.646a4.693,4.693,0,0,1,3.951-1.9,3.864,3.864,0,0,1,3.521,1.532,8.182,8.182,0,0,1,.988,4.42v6.965H18.387v-6.585a4.944,4.944,0,0,0-.405-2.343q-.405-.7-1.773-.7a2.606,2.606,0,0,0-2.077.912,3.52,3.52,0,0,0-.785,2.381v6.332Z" transform="translate(1810 733.546)" fill="#fff"/>
  </g>
</svg>
