<svg width="24" height="24" viewBox="0 0 24 24" fill="none" xmlns="http://www.w3.org/2000/svg">
<path d="M21.9999 18.3031C21.9817 18.6755 21.9138 19.0438 21.7979 19.3985C21.6208 19.7704 21.3818 20.1098 21.0909 20.4026C20.6232 20.8841 20.0807 21.2878 19.4841 21.5984C18.8747 21.8377 18.2291 21.9734 17.5744 22C16.4333 21.9887 15.3062 21.7497 14.2598 21.2971C13.0578 20.7443 11.9137 20.0747 10.8443 19.298C9.69036 18.4261 8.58394 17.4937 7.52972 16.5048C6.48612 15.4987 5.54219 14.3952 4.71097 13.2095C3.93448 12.1449 3.26412 11.0076 2.70938 9.81379C2.23473 8.77656 1.99346 7.6488 2.0024 6.50931C1.97969 5.8561 2.1184 5.20736 2.40639 4.61981C2.63851 3.97501 3.01531 3.39126 3.50818 2.91283C3.77922 2.62587 4.1063 2.39686 4.4694 2.23991C4.83251 2.08295 5.22401 2.00135 5.61995 2C5.9009 2.00673 6.17685 2.07529 6.42793 2.2008C6.72338 2.31572 6.96987 2.5285 7.12573 2.80324L9.43949 6.09858C9.61119 6.30646 9.74765 6.54079 9.84348 6.79234C9.92563 6.98209 9.96028 7.18879 9.94448 7.39478C9.92198 7.65472 9.84371 7.90684 9.71494 8.13417C9.57189 8.41043 9.36404 8.64839 9.10895 8.82792L8.30097 9.63121C8.24166 9.67841 8.19361 9.73807 8.16027 9.80594C8.12693 9.8738 8.10913 9.9482 8.10816 10.0237V10.2245C8.10816 10.3249 8.19997 10.325 8.19997 10.4254C8.48261 10.8734 8.7891 11.306 9.11813 11.7216C9.59618 12.2758 10.1018 12.8059 10.6331 13.3099C11.1381 13.8028 11.7349 14.3049 12.2399 14.8069C12.7449 15.309 13.2498 15.5007 13.5437 15.7198C13.6447 15.7198 13.6447 15.8201 13.7457 15.8201H13.9476C14.0258 15.8188 14.1026 15.8001 14.1726 15.7653C14.2425 15.7306 14.3037 15.6807 14.3516 15.6194L15.1596 14.8252C15.3524 14.6244 15.6554 14.4235 15.8574 14.2227C16.077 14.1091 16.3175 14.0408 16.5644 14.0219C16.7686 14.0054 16.9738 14.0399 17.1612 14.1223C17.4171 14.2174 17.6558 14.3531 17.8682 14.524L21.1827 16.9247C21.4338 17.0609 21.6421 17.2633 21.7847 17.5098C21.9273 17.7563 21.9986 18.0371 21.9907 18.3213L21.9999 18.3031Z" stroke="#413A3F" stroke-width="1.5" stroke-linecap="round" stroke-linejoin="round"/>
<path d="M18 10C17.8254 9.0007 17.3435 8.0807 16.6214 7.36814C16.3 6.9743 15.9019 6.64998 15.4513 6.41478C15.0006 6.17959 14.5069 6.03844 14 6" stroke="#413A3F" stroke-width="1.5" stroke-linecap="round" stroke-linejoin="round"/>
<path d="M21.9999 9C22.0047 8.0794 21.827 7.16697 21.4769 6.31552C21.1269 5.46406 20.6114 4.69045 19.9605 4.03948C19.3095 3.38851 18.5359 2.87311 17.6845 2.52305C16.833 2.17299 15.9206 1.99525 15 2.0001" stroke="#413A3F" stroke-width="1.5" stroke-linecap="round" stroke-linejoin="round"/>
</svg>
