<svg width="138" height="106" viewBox="0 0 138 106" fill="none" xmlns="http://www.w3.org/2000/svg">
<g filter="url(#filter0_d_2836_151157)">
<g clip-path="url(#clip0_2836_151157)">
<rect x="12" y="8" width="114" height="82" rx="16" fill="white"/>
<g filter="url(#filter1_d_2836_151157)">
<circle cx="92.5" cy="59" r="5" fill="white"/>
<circle cx="92.5" cy="59" r="4" stroke="#C1B8BF" stroke-width="2"/>
</g>
<path fill-rule="evenodd" clip-rule="evenodd" d="M34 34C29.5817 34 26 37.5817 26 42V48C26 52.4183 29.5817 56 34 56H41.5554L44.4999 62L47.4444 56H55C59.4183 56 63 52.4183 63 48V42C63 37.5817 59.4183 34 55 34H34Z" fill="#438164"/>
<path d="M34.1019 40.324H40.1619V41.404L36.8739 49H35.6499L38.9739 41.404H34.1019V40.324ZM45.9857 46.252L43.9577 49H42.5897L44.7617 46.12C44.4617 46.24 44.1497 46.3 43.8497 46.3C42.0497 46.3 40.8377 45.004 40.8377 43.276C40.8377 41.476 42.2057 40.168 43.9937 40.168C45.7937 40.168 47.1857 41.524 47.1857 43.288C47.1857 44.308 46.8737 45.04 45.9857 46.252ZM45.9857 43.276C45.9857 42.088 45.1697 41.224 43.9937 41.224C42.8417 41.224 42.0257 42.088 42.0257 43.276C42.0257 44.464 42.8417 45.304 43.9937 45.304C45.1697 45.304 45.9857 44.464 45.9857 43.276ZM54.4212 47.248H53.3892V49H52.2612V47.248H47.7732V46.204L51.8652 40.324H53.3892V46.204H54.4212V47.248ZM49.0452 46.204H52.2612V41.572L49.0452 46.204Z" fill="white"/>
<mask id="path-6-inside-1_2836_151157" fill="white">
<path fill-rule="evenodd" clip-rule="evenodd" d="M82.5 24C78.0817 24 74.5 27.5817 74.5 32V38C74.5 42.4183 78.0817 46 82.5 46H90.0554L92.9999 52L95.9444 46H103.5C107.918 46 111.5 42.4183 111.5 38V32C111.5 27.5817 107.918 24 103.5 24H82.5Z"/>
</mask>
<path fill-rule="evenodd" clip-rule="evenodd" d="M82.5 24C78.0817 24 74.5 27.5817 74.5 32V38C74.5 42.4183 78.0817 46 82.5 46H90.0554L92.9999 52L95.9444 46H103.5C107.918 46 111.5 42.4183 111.5 38V32C111.5 27.5817 107.918 24 103.5 24H82.5Z" fill="white"/>
<path d="M90.0554 46L90.9531 45.5594L90.6786 45H90.0554V46ZM92.9999 52L92.1022 52.4406L92.9999 54.2699L93.8976 52.4406L92.9999 52ZM95.9444 46V45H95.3212L95.0467 45.5594L95.9444 46ZM75.5 32C75.5 28.134 78.634 25 82.5 25V23C77.5294 23 73.5 27.0294 73.5 32H75.5ZM75.5 38V32H73.5V38H75.5ZM82.5 45C78.634 45 75.5 41.866 75.5 38H73.5C73.5 42.9706 77.5294 47 82.5 47V45ZM90.0554 45H82.5V47H90.0554V45ZM93.8976 51.5594L90.9531 45.5594L89.1577 46.4406L92.1022 52.4406L93.8976 51.5594ZM95.0467 45.5594L92.1022 51.5594L93.8976 52.4406L96.8421 46.4406L95.0467 45.5594ZM103.5 45H95.9444V47H103.5V45ZM110.5 38C110.5 41.866 107.366 45 103.5 45V47C108.471 47 112.5 42.9706 112.5 38H110.5ZM110.5 32V38H112.5V32H110.5ZM103.5 25C107.366 25 110.5 28.134 110.5 32H112.5C112.5 27.0294 108.471 23 103.5 23V25ZM82.5 25H103.5V23H82.5V25Z" fill="#C1B8BF" mask="url(#path-6-inside-1_2836_151157)"/>
<path d="M81.3394 36.588C81.3394 35.544 81.9514 34.704 82.9114 34.356C82.0954 34.008 81.6514 33.324 81.6514 32.448C81.6514 31.092 82.8154 30.168 84.5434 30.168C86.2474 30.168 87.3994 31.092 87.3994 32.46C87.3994 33.348 86.9434 34.032 86.1274 34.356C87.0994 34.668 87.7234 35.532 87.7234 36.6C87.7234 38.124 86.4514 39.144 84.5314 39.144C82.5994 39.144 81.3394 38.124 81.3394 36.588ZM82.7314 32.52C82.7314 33.372 83.4394 33.924 84.5194 33.924C85.6114 33.924 86.2954 33.384 86.2954 32.544C86.2954 31.716 85.6114 31.188 84.5194 31.188C83.4394 31.188 82.7314 31.716 82.7314 32.52ZM82.4914 36.504C82.4914 37.476 83.2954 38.1 84.5314 38.1C85.7554 38.1 86.5594 37.476 86.5594 36.504C86.5594 35.544 85.7674 34.932 84.5194 34.932C83.2834 34.932 82.4914 35.544 82.4914 36.504ZM88.8634 34.668C88.8634 31.98 90.2554 30.156 92.4394 30.156C94.6114 30.156 96.0034 31.98 96.0034 34.668C96.0034 37.368 94.6714 39.156 92.4394 39.156C90.1954 39.156 88.8634 37.368 88.8634 34.668ZM90.0274 34.668C90.0274 36.804 90.9154 38.1 92.4394 38.1C93.9634 38.1 94.8394 36.804 94.8394 34.668C94.8394 32.508 93.9634 31.212 92.4394 31.212C90.9154 31.212 90.0274 32.508 90.0274 34.668ZM103.652 37.248H102.62V39H101.492V37.248H97.0037V36.204L101.096 30.324H102.62V36.204H103.652V37.248ZM98.2757 36.204H101.492V31.572L98.2757 36.204Z" fill="#6C6069"/>
<g filter="url(#filter2_d_2836_151157)">
<path d="M52 67L85 60.5" stroke="#C1B8BF" stroke-width="3" stroke-linecap="round" stroke-dasharray="6 6"/>
</g>
<g filter="url(#filter3_d_2836_151157)">
<circle cx="44" cy="69" r="5" fill="white"/>
<circle cx="44" cy="69" r="4" stroke="#438164" stroke-width="2"/>
</g>
</g>
</g>
<defs>
<filter id="filter0_d_2836_151157" x="0" y="0" width="138" height="106" filterUnits="userSpaceOnUse" color-interpolation-filters="sRGB">
<feFlood flood-opacity="0" result="BackgroundImageFix"/>
<feColorMatrix in="SourceAlpha" type="matrix" values="0 0 0 0 0 0 0 0 0 0 0 0 0 0 0 0 0 0 127 0" result="hardAlpha"/>
<feOffset dy="4"/>
<feGaussianBlur stdDeviation="6"/>
<feComposite in2="hardAlpha" operator="out"/>
<feColorMatrix type="matrix" values="0 0 0 0 0.305882 0 0 0 0 0.305882 0 0 0 0 0.47451 0 0 0 0.12 0"/>
<feBlend mode="normal" in2="BackgroundImageFix" result="effect1_dropShadow_2836_151157"/>
<feBlend mode="normal" in="SourceGraphic" in2="effect1_dropShadow_2836_151157" result="shape"/>
</filter>
<filter id="filter1_d_2836_151157" x="57.5" y="28" width="70" height="70" filterUnits="userSpaceOnUse" color-interpolation-filters="sRGB">
<feFlood flood-opacity="0" result="BackgroundImageFix"/>
<feColorMatrix in="SourceAlpha" type="matrix" values="0 0 0 0 0 0 0 0 0 0 0 0 0 0 0 0 0 0 127 0" result="hardAlpha"/>
<feOffset dy="4"/>
<feGaussianBlur stdDeviation="15"/>
<feComposite in2="hardAlpha" operator="out"/>
<feColorMatrix type="matrix" values="0 0 0 0 0 0 0 0 0 0 0 0 0 0 0 0 0 0 0.05 0"/>
<feBlend mode="normal" in2="BackgroundImageFix" result="effect1_dropShadow_2836_151157"/>
<feBlend mode="normal" in="SourceGraphic" in2="effect1_dropShadow_2836_151157" result="shape"/>
</filter>
<filter id="filter2_d_2836_151157" x="46.4998" y="59" width="56.0005" height="29.5" filterUnits="userSpaceOnUse" color-interpolation-filters="sRGB">
<feFlood flood-opacity="0" result="BackgroundImageFix"/>
<feColorMatrix in="SourceAlpha" type="matrix" values="0 0 0 0 0 0 0 0 0 0 0 0 0 0 0 0 0 0 127 0" result="hardAlpha"/>
<feOffset dx="6" dy="10"/>
<feGaussianBlur stdDeviation="5"/>
<feComposite in2="hardAlpha" operator="out"/>
<feColorMatrix type="matrix" values="0 0 0 0 0.0901961 0 0 0 0 0.729412 0 0 0 0 0.662745 0 0 0 0.2 0"/>
<feBlend mode="normal" in2="BackgroundImageFix" result="effect1_dropShadow_2836_151157"/>
<feBlend mode="normal" in="SourceGraphic" in2="effect1_dropShadow_2836_151157" result="shape"/>
</filter>
<filter id="filter3_d_2836_151157" x="9" y="38" width="70" height="70" filterUnits="userSpaceOnUse" color-interpolation-filters="sRGB">
<feFlood flood-opacity="0" result="BackgroundImageFix"/>
<feColorMatrix in="SourceAlpha" type="matrix" values="0 0 0 0 0 0 0 0 0 0 0 0 0 0 0 0 0 0 127 0" result="hardAlpha"/>
<feOffset dy="4"/>
<feGaussianBlur stdDeviation="15"/>
<feComposite in2="hardAlpha" operator="out"/>
<feColorMatrix type="matrix" values="0 0 0 0 0 0 0 0 0 0 0 0 0 0 0 0 0 0 0.05 0"/>
<feBlend mode="normal" in2="BackgroundImageFix" result="effect1_dropShadow_2836_151157"/>
<feBlend mode="normal" in="SourceGraphic" in2="effect1_dropShadow_2836_151157" result="shape"/>
</filter>
<clipPath id="clip0_2836_151157">
<rect x="12" y="8" width="114" height="82" rx="16" fill="white"/>
</clipPath>
</defs>
</svg>
