<svg xmlns="http://www.w3.org/2000/svg" width="15.548" height="12.633" viewBox="0 0 15.548 12.633">
  <g id="twitter" transform="translate(-1815.226 -643.809)">
    <path id="twitter-2" data-name="twitter" d="M15.548,49.5a6.646,6.646,0,0,1-1.837.5,3.17,3.17,0,0,0,1.4-1.762,6.37,6.37,0,0,1-2.021.772,3.187,3.187,0,0,0-5.514,2.18,3.282,3.282,0,0,0,.074.727,9.022,9.022,0,0,1-6.57-3.334,3.188,3.188,0,0,0,.98,4.26,3.148,3.148,0,0,1-1.44-.393v.035a3.2,3.2,0,0,0,2.554,3.132,3.181,3.181,0,0,1-.836.1,2.819,2.819,0,0,1-.6-.054,3.218,3.218,0,0,0,2.978,2.22A6.4,6.4,0,0,1,.763,59.246,5.971,5.971,0,0,1,0,59.2a8.974,8.974,0,0,0,4.89,1.43,9.01,9.01,0,0,0,9.072-9.07c0-.141,0-.277-.012-.412A6.359,6.359,0,0,0,15.548,49.5Z" transform="translate(1815.226 595.809)" fill="#fff"/>
  </g>
</svg>
